{"title":"Doctor Who 2005 S08E07 Kill The Moon 720p HDTV X265","uid":11160970,"size":476630669,"categoryP":"video","categoryS":"hd___tv_shows","magnet":"?xt=urn:btih:9df52b62ffa235034d09eb2433bbb673670693d3&amp;dn=Doctor+Who+2005+S08E07+Kill+The+Moon+720p+HDTV+X265&amp;tr=udp%3A%2F%2Ftracker.openbittorrent.com%3A80&amp;tr=udp%3A%2F%2Fopen.demonii.com%3A1337&amp;tr=udp%3A%2F%2Ftracker.coppersurfer.tk%3A6969&amp;tr=udp%3A%2F%2Fexodus.desync.com%3A6969","seeders":4,"leechers":2,"uploader":"atm50","files":-1,"time":1412540891,"description":"In the near future, the Doctor and Clara find themselves on a space shuttle making a suicide mission to the Moon. Crash-landing on the lunar surface they find the most terrible things.\n\nSource: Doctor Who 2005 8x07 Kill The Moon 720p HDTV x264-FoV [eztv]\n\nFormat                         : MPEG-4\nFile size                      : 454 MiB\nDuration                       : 44mn 31s\nOverall bit rate               : 1 427 Kbps\n\nVideo\n\nFormat                         : HEVC [X265]\nBit rate                       : 1 169 Kbps\nMaximum bit rate               : 9 730 Kbps\nWidth                          : 1 280 pixels\nHeight                         : 720 pixels\nDisplay aspect ratio           : 16:9\nFrame rate                     : 25.000 fps\nStream size                    : 372 MiB (82%)\n\nAudio\n\nFormat                         : AC-3\nBit rate                       : 256 Kbps\nChannel(s)                     : 6 channels (5.1)\nSampling rate                  : 48.0 KHz\nBit depth                      : 16 bits\nCompression mode               : Lossy\nStream size                    : 81.5 MiB (18%)\n\nSubtitles: English (External)","torrent":{"xt":"urn:btih:9df52b62ffa235034d09eb2433bbb673670693d3","amp;dn":"Doctor+Who+2005+S08E07+Kill+The+Moon+720p+HDTV+X265","amp;tr":["udp%3A%2F%2Ftracker.openbittorrent.com%3A80","udp%3A%2F%2Fopen.demonii.com%3A1337","udp%3A%2F%2Ftracker.coppersurfer.tk%3A6969","udp%3A%2F%2Fexodus.desync.com%3A6969"],"infoHash":"9df52b62ffa235034d09eb2433bbb673670693d3","infoHashBuffer":{"type":"Buffer","data":[157,245,43,98,255,162,53,3,77,9,235,36,51,187,182,115,103,6,147,211]},"announce":[],"urlList":[]}}